# xmcd
#
# Track frame offsets: 
#        150
#        12815
#        25883
#        37129
#        53230
#        64601
#        80692
#        93838
#        105771
#        118899
#        138631
#        153016
#
# Disc length: 2257 seconds
#
# Revision: 0
# Processed by: cddbd v1.5.2PL0 Copyright (c) Steve Scherf et al.
# Submitted via: ExactAudioCopyFreeDBPlugin 1.0
#
DISCID=9108cf0c
DTITLE=The Devil Makes Three - Redemption and Ruin
DYEAR=2016
DGENRE=Blues
TTITLE0=Drunken Hearted Man
TTITLE1=Champagne and Reefer
TTITLE2=I Gotta Get Drunk
TTITLE3=Chase the Feeling
TTITLE4=I'm Gonna Get High
TTITLE5=Waiting Around to Die
TTITLE6=There'll Be A Jubilee
TTITLE7=I Am the Man Thomas
TTITLE8=Come On Up To the House
TTITLE9=What Would You Give (In Exchange For Your Soul)
TTITLE10=Down in the Valley
TTITLE11=The Angel of Death
EXTD=
EXTT0=
EXTT1=
EXTT2=
EXTT3=
EXTT4=
EXTT5=
EXTT6=
EXTT7=
EXTT8=
EXTT9=
EXTT10=
EXTT11=
PLAYORDER=
